<svg width="256" height="256" viewBox="0 0 256 256" fill="none" xmlns="http://www.w3.org/2000/svg">
<path d="M53.1287 39.9407C51.6498 36.9828 45.1178 31.3136 42.0367 28.8487L64.2208 39.9407L60.5234 27C60.5234 27 78.4962 35.3996 86.4049 41.7894C93.7995 47.3354 97.4969 51.0328 101.194 56.5788C104.892 62.1248 128.555 83.1997 134.47 86.1575C145.562 91.7036 152.303 83.7502 163.09 86.1575C169.717 87.6365 173.885 92.936 175.141 95.4009C176.99 96.0171 185.721 97.6952 189.931 99.0983C195.477 100.947 202.871 102.796 213.963 112.039C213.963 112.039 201.023 106.493 191.779 104.644C182.536 102.796 176.99 102.796 176.99 102.796C165.898 100.947 168.335 102.648 160.352 104.644C153.178 106.438 150.052 108.342 138.168 124.98C128.924 137.92 128.924 136.072 114.135 147.164C93.7995 171.197 95.9915 174.036 91.9509 184.137C88.993 191.532 80.2426 222.959 79.0102 228.505C79.0102 226.657 83.0772 209.279 84.5562 198.927C86.0351 188.574 91.3347 173.661 95.6482 161.953L82.7075 187.835L93.7995 154.558L112.286 113.888C104.275 107.109 90.1022 95.4009 80.8588 86.1575C73.4641 78.7628 54.9774 43.6381 53.1287 39.9407Z" fill="#CDCDCD"/>
<path d="M53.1287 39.9407C51.6498 36.9828 45.1178 31.3136 42.0367 28.8487L67.9181 39.9407L86.4049 54.7301L99.3456 69.5195L106.74 76.9142C125.227 86.1575 128.924 89.8549 138.168 89.8549C152.957 88.0062 154.806 84.3089 163.09 86.1575C169.717 87.6365 173.885 92.936 175.141 95.4009C176.99 96.0171 185.721 97.6952 189.931 99.0982C195.477 100.947 202.871 102.796 213.963 112.039C213.963 112.039 201.023 106.493 191.779 104.644C182.536 102.796 176.99 102.796 176.99 102.796C165.898 100.947 168.335 102.648 160.352 104.644C153.178 106.438 150.052 108.342 138.168 124.98C128.924 137.92 128.924 136.072 114.135 147.164C93.7995 171.197 95.9915 174.036 91.9509 184.137C88.993 191.532 80.2426 222.959 79.0102 228.505C79.0102 226.657 83.0772 209.279 84.5562 198.927C86.0351 188.574 91.3347 173.661 95.6482 161.953L82.7075 187.835L93.7995 154.558L112.286 113.888C104.275 107.109 90.1022 95.4009 80.8588 86.1575C73.4641 78.7628 54.9774 43.6381 53.1287 39.9407Z" fill="url(#paint0_linear_1_2)"/>
<defs>
<linearGradient id="paint0_linear_1_2" x1="53.1287" y1="137.92" x2="53.1287" y2="34.3947" gradientUnits="userSpaceOnUse">
<stop offset="0.00953429" stop-color="#AEAEAE"/>
<stop offset="1" stop-color="white"/>
</linearGradient>
</defs>
</svg>
