<svg width="30" height="30" viewBox="0 0 30 30" fill="none" xmlns="http://www.w3.org/2000/svg">
<path fill-rule="evenodd" clip-rule="evenodd" d="M20.3585 15C20.3585 17.8719 17.9594 20.2 15 20.2C12.0407 20.2 9.6416 17.8719 9.6416 15C9.6416 12.1281 12.0407 9.8 15 9.8C17.9594 9.8 20.3585 12.1281 20.3585 15ZM17.6793 15C17.6793 16.4359 16.4797 17.6 15 17.6C13.5203 17.6 12.3208 16.4359 12.3208 15C12.3208 13.5641 13.5203 12.4 15 12.4C16.4797 12.4 17.6793 13.5641 17.6793 15Z" fill="#2E76B8"/>
<path fill-rule="evenodd" clip-rule="evenodd" d="M2.17952 10.5491L4.61775 6.45088C4.93252 5.92181 5.58444 5.67681 6.1843 5.86215L8.64512 6.62248C8.97349 6.38816 9.31419 6.17321 9.66525 5.97815C9.99968 5.79151 10.3455 5.62188 10.7014 5.47048L11.2532 3.02219C11.3878 2.42539 11.9324 2 12.5619 2H17.4384C18.0679 2 18.6125 2.42539 18.747 3.02219L19.2989 5.47048C19.6765 5.63113 20.0428 5.8123 20.3962 6.01254C20.7256 6.1984 21.0457 6.40185 21.3549 6.62248L23.8157 5.86215C24.4156 5.67681 25.0675 5.92181 25.3822 6.45088L27.8205 10.5491C28.1352 11.0782 28.0279 11.7486 27.5626 12.1601L25.6536 13.848C25.6975 14.2315 25.719 14.6156 25.7187 14.9985C25.7191 15.3825 25.6976 15.7676 25.6537 16.152L27.5626 17.84C28.0279 18.2514 28.1352 18.9218 27.8205 19.4509L25.3822 23.5491C25.0675 24.0782 24.4156 24.3232 23.8157 24.1379L21.3549 23.3775C21.0419 23.6009 20.7177 23.8066 20.3841 23.9943C20.0344 24.1918 19.6722 24.3707 19.2989 24.5295L18.747 26.9778C18.6125 27.5746 18.0679 28 17.4384 28H12.5619C11.9324 28 11.3878 27.5746 11.2532 26.9778L10.7014 24.5295C10.3496 24.3799 10.0077 24.2124 9.67693 24.0284C9.32175 23.8316 8.97713 23.6145 8.64512 23.3775L6.1843 24.1379C5.58444 24.3232 4.93252 24.0782 4.61775 23.5491L2.17952 19.4509C1.86475 18.9218 1.97207 18.2514 2.43741 17.84L4.34635 16.152C4.30247 15.7681 4.28097 15.3835 4.28134 15C4.28097 14.6165 4.30247 14.232 4.34635 13.848L2.43741 12.1601C1.97208 11.7486 1.86476 11.0782 2.17952 10.5491ZM16.3601 4.6L16.9732 7.31994L18.2232 7.85171C18.5059 7.97196 18.7803 8.10768 19.0452 8.25781L19.0495 8.26024C19.2965 8.39958 19.5363 8.552 19.7677 8.71714L20.8672 9.50176L23.6011 8.65706L24.9611 10.943L22.8403 12.8182L22.9908 14.1346C23.0236 14.4216 23.0397 14.7094 23.0394 14.9965L23.0394 15.0014C23.0398 15.2892 23.0236 15.5777 22.9908 15.8654L22.8403 17.1818L24.9611 19.0571L23.6011 21.343L20.8672 20.4983L19.7677 21.2829C19.5334 21.4501 19.2906 21.6042 19.0405 21.7449L19.0361 21.7473C18.774 21.8954 18.5026 22.0294 18.2232 22.1483L16.9732 22.6801L16.3601 25.4H13.6401L13.027 22.6801L11.7771 22.1483C11.5138 22.0363 11.2577 21.9109 11.0097 21.7729L11.0053 21.7704C10.739 21.6229 10.4808 21.4602 10.2323 21.2829L9.13277 20.4983L6.3989 21.343L5.03892 19.0571L7.15967 17.1818L7.00924 15.8654C6.9764 15.578 6.96028 15.2899 6.96056 15.0024L6.96055 14.9976C6.96028 14.7101 6.9764 14.422 7.00924 14.1346L7.15967 12.8182L5.03892 10.943L6.3989 8.65706L9.13277 9.50176L10.2323 8.71714C10.4781 8.54175 10.7333 8.38071 10.9965 8.23446L11.0009 8.23202C11.2516 8.0921 11.5107 7.96504 11.7771 7.85171L13.027 7.31994L13.6401 4.6H16.3601Z" fill="#2E76B8"/>
</svg>
