<svg width="30" height="30" viewBox="0 0 30 30" fill="none" xmlns="http://www.w3.org/2000/svg">
<path fill-rule="evenodd" clip-rule="evenodd" d="M19.8214 18.2143C21.5202 18.2143 22.9551 17.0847 23.4161 15.5357H25.7143V13.3929H23.4161C22.9551 11.8438 21.5202 10.7143 19.8214 10.7143C17.7504 10.7143 16.0714 12.3932 16.0714 14.4643C16.0714 16.5354 17.7504 18.2143 19.8214 18.2143ZM19.8214 16.0714C20.709 16.0714 21.4286 15.3519 21.4286 14.4643C21.4286 13.5767 20.709 12.8571 19.8214 12.8571C18.9338 12.8571 18.2143 13.5767 18.2143 14.4643C18.2143 15.3519 18.9338 16.0714 19.8214 16.0714Z" fill="#DCDCDC"/>
<path d="M4.28571 19.8214H25.7143V21.9643H4.28571V19.8214Z" fill="#DCDCDC"/>
<path d="M15 13.3929H4.28571V15.5357H15V13.3929Z" fill="#DCDCDC"/>
<path d="M25.7143 6.96429H4.28571V9.10714H25.7143V6.96429Z" fill="#DCDCDC"/>
</svg>
