<svg width="30" height="30" viewBox="0 0 30 30" fill="none" xmlns="http://www.w3.org/2000/svg">
<path fill-rule="evenodd" clip-rule="evenodd" d="M12.3214 11.7857C14.0202 11.7857 15.4551 10.6562 15.9161 9.10714H25.7143V6.96428H15.9161C15.4551 5.41527 14.0202 4.28571 12.3214 4.28571C10.2504 4.28571 8.57143 5.96465 8.57143 8.03571C8.57143 10.1068 10.2504 11.7857 12.3214 11.7857ZM13.9286 8.03571C13.9286 8.92331 13.209 9.64286 12.3214 9.64286C11.4338 9.64286 10.7143 8.92331 10.7143 8.03571C10.7143 7.14811 11.4338 6.42857 12.3214 6.42857C13.209 6.42857 13.9286 7.14811 13.9286 8.03571Z" fill="#2E76B8"/>
<path fill-rule="evenodd" clip-rule="evenodd" d="M19.8214 18.2143C21.5202 18.2143 22.9551 17.0847 23.4161 15.5357H25.7143V13.3929H23.4161C22.9551 11.8438 21.5202 10.7143 19.8214 10.7143C17.7504 10.7143 16.0714 12.3932 16.0714 14.4643C16.0714 16.5354 17.7504 18.2143 19.8214 18.2143ZM19.8214 16.0714C20.709 16.0714 21.4286 15.3519 21.4286 14.4643C21.4286 13.5767 20.709 12.8571 19.8214 12.8571C18.9338 12.8571 18.2143 13.5767 18.2143 14.4643C18.2143 15.3519 18.9338 16.0714 19.8214 16.0714Z" fill="#2E76B8"/>
<path fill-rule="evenodd" clip-rule="evenodd" d="M10.1786 24.6429C12.2496 24.6429 13.9286 22.9639 13.9286 20.8929C13.9286 18.8218 12.2496 17.1429 10.1786 17.1429C8.47981 17.1429 7.04487 18.2724 6.58386 19.8214H4.28571V21.9643H6.58386C7.04487 23.5133 8.47981 24.6429 10.1786 24.6429ZM10.1786 22.5C11.0662 22.5 11.7857 21.7805 11.7857 20.8929C11.7857 20.0053 11.0662 19.2857 10.1786 19.2857C9.29097 19.2857 8.57143 20.0053 8.57143 20.8929C8.57143 21.7805 9.29097 22.5 10.1786 22.5Z" fill="#2E76B8"/>
<path d="M15 19.8214H25.7143V21.9643H15V19.8214Z" fill="#2E76B8"/>
<path d="M15 13.3929H4.28571V15.5357H15V13.3929Z" fill="#2E76B8"/>
<path d="M7.5 6.96428H4.28571V9.10714H7.5V6.96428Z" fill="#2E76B8"/>
</svg>
