<svg width="30" height="30" viewBox="0 0 30 30" fill="none" xmlns="http://www.w3.org/2000/svg">
<path d="M9.10875 13.8469C8.99 13.6794 8.9425 13.5758 8.96625 13.5359C8.98208 13.496 9.09292 13.4801 9.275 13.496C9.45708 13.512 9.6075 13.5359 9.73417 13.5678C9.85292 13.5997 9.95583 13.6475 10.035 13.7033C10.1142 13.7592 10.1775 13.823 10.2171 13.9107C10.2646 13.9904 10.2963 14.0941 10.3279 14.2057C10.3833 14.429 10.3675 14.5805 10.2883 14.6603C10.2013 14.74 10.0825 14.7241 9.92417 14.6124C9.75792 14.5008 9.61542 14.3892 9.48875 14.2775C9.35417 14.1738 9.2275 14.0223 9.10875 13.8469ZM7.39083 20.9522C7.77083 20.7847 8.10333 20.6172 8.38833 20.4418C8.66542 20.2743 8.91083 20.0909 9.12458 19.8995C9.33042 19.7161 9.52042 19.5088 9.67875 19.2855C9.83708 19.0702 9.97958 18.823 10.1063 18.5518C10.2092 18.6475 10.3042 18.7432 10.4071 18.8309C10.5021 18.9187 10.605 19.0064 10.7079 19.1021C10.8108 19.1978 10.9296 19.2935 11.0483 19.4051C11.1671 19.5167 11.3096 19.6284 11.4679 19.764C11.5233 19.8038 11.5788 19.8357 11.6342 19.8437C11.6896 19.8517 11.7688 19.8437 11.8796 19.7959C11.9825 19.756 12.1171 19.6842 12.2833 19.5726C12.4496 19.4689 12.6554 19.3254 12.9088 19.1419C13.0354 19.0542 13.0987 18.9825 13.0908 18.9266C13.0829 18.8708 13.0117 18.8469 12.8771 18.8549C12.6317 18.8628 12.41 18.8628 12.22 18.8469C12.0221 18.8309 11.8242 18.799 11.6342 18.7352C11.4442 18.6715 11.2463 18.5837 11.0404 18.4641C10.8346 18.3445 10.5971 18.177 10.32 17.9697C10.3992 17.6587 10.4625 17.3317 10.51 16.9809C10.5337 16.7815 10.5575 16.638 10.5733 16.5343C10.5892 16.4386 10.6129 16.3429 10.6446 16.2711C10.6683 16.2073 10.6763 16.1595 10.6842 16.1196C10.6921 16.0797 10.6763 16.0399 10.6525 15.992C10.6208 15.9522 10.5733 15.9043 10.5021 15.8565C10.4308 15.8086 10.3279 15.7448 10.1933 15.673C10.3833 15.6013 10.5971 15.5375 10.8187 15.4657C11.0325 15.3939 11.27 15.3222 11.5154 15.2504C11.7529 15.1786 11.8717 15.0989 11.8796 15.0032C11.8875 14.9075 11.8083 14.8198 11.6262 14.7241C11.5075 14.6603 11.3967 14.6364 11.2858 14.6523C11.175 14.6683 11.0325 14.7241 10.8583 14.8278C10.8108 14.8596 10.7158 14.8995 10.5892 14.9553C10.4546 15.0112 10.3042 15.075 10.1142 15.1547C9.92417 15.2344 9.71833 15.3142 9.49667 15.4019C9.26708 15.4896 9.0375 15.5774 8.80792 15.6571C8.57833 15.7448 8.35667 15.8166 8.15875 15.8804C7.95292 15.9442 7.79458 15.992 7.67583 16.008C7.375 16.0718 7.21667 16.1356 7.20875 16.1994C7.20875 16.2632 7.3275 16.327 7.55708 16.3907C7.65208 16.4147 7.73917 16.4386 7.8025 16.4386C7.86583 16.4466 7.93708 16.4466 8.00042 16.4386C8.06375 16.4306 8.12708 16.4147 8.19042 16.3987C8.25375 16.3748 8.325 16.3429 8.41208 16.311C8.53875 16.2472 8.72083 16.1754 8.95833 16.0877C9.18792 16.008 9.48083 15.8963 9.845 15.7687C9.91625 15.9841 9.95583 16.2472 9.95583 16.5502C9.95583 16.8533 9.92417 17.1962 9.845 17.5869C9.74208 17.4992 9.63125 17.4035 9.5125 17.2998C9.39375 17.1962 9.28292 17.0925 9.17208 16.9888C9.04542 16.8692 8.91875 16.7895 8.8 16.7496C8.67333 16.7097 8.53083 16.7097 8.36458 16.7496C8.10333 16.8214 7.96875 16.9011 7.97667 16.9968C7.97667 17.0925 8.07958 17.1404 8.2775 17.1483C8.34875 17.1563 8.42 17.1722 8.49125 17.1962C8.5625 17.2201 8.64167 17.2679 8.74458 17.3397C8.8475 17.4115 8.97417 17.5152 9.11667 17.6427C9.25917 17.7703 9.44917 17.9378 9.67083 18.1451C9.57583 18.3764 9.465 18.5917 9.34625 18.7831C9.2275 18.9825 9.07708 19.1818 8.91083 19.3652C8.73667 19.5566 8.53875 19.748 8.30125 19.9394C8.06375 20.1388 7.77875 20.3461 7.44625 20.5614C7.10583 20.7847 6.93167 20.9362 6.93167 21.008C6.93958 21.1116 7.09792 21.0797 7.39083 20.9522ZM24 12.3158V25.4976L15.165 22.5949L5 26V11.8612L7.36708 11.0638V6.62201L13.7954 8.91069L22.48 6V11.8293L24 12.3158ZM14.0013 9.82775L5.93417 12.5391V24.6762L14.0013 21.9729V9.82775ZM21.5379 11.5263V7.30781L15.1017 9.46093L21.5379 11.5263ZM22.1396 21.8931L19.725 13.1292L18.1021 12.6188L15.6558 19.8596L17.1521 20.3301L17.6112 18.8389L20.1367 19.6364L20.5879 21.4147L22.1396 21.8931ZM18.0071 17.571L19.7646 18.1212L18.9017 14.7002L18.0071 17.571Z" fill="#DCDCDC"/>
</svg>
