<svg width="30" height="30" viewBox="0 0 30 30" fill="none" xmlns="http://www.w3.org/2000/svg">
<path d="M10.1088 13.8469C9.99 13.6794 9.9425 13.5758 9.96625 13.5359C9.98208 13.496 10.0929 13.4801 10.275 13.496C10.4571 13.512 10.6075 13.5359 10.7342 13.5678C10.8529 13.5997 10.9558 13.6475 11.035 13.7033C11.1142 13.7592 11.1775 13.823 11.2171 13.9107C11.2646 13.9904 11.2963 14.0941 11.3279 14.2057C11.3833 14.429 11.3675 14.5805 11.2883 14.6603C11.2013 14.74 11.0825 14.7241 10.9242 14.6124C10.7579 14.5008 10.6154 14.3892 10.4887 14.2775C10.3542 14.1738 10.2275 14.0223 10.1088 13.8469ZM8.39083 20.9522C8.77083 20.7847 9.10333 20.6172 9.38833 20.4418C9.66542 20.2743 9.91083 20.0909 10.1246 19.8995C10.3304 19.7161 10.5204 19.5088 10.6788 19.2855C10.8371 19.0702 10.9796 18.823 11.1063 18.5518C11.2092 18.6475 11.3042 18.7432 11.4071 18.8309C11.5021 18.9187 11.605 19.0064 11.7079 19.1021C11.8108 19.1978 11.9296 19.2935 12.0483 19.4051C12.1671 19.5167 12.3096 19.6284 12.4679 19.764C12.5233 19.8038 12.5788 19.8357 12.6342 19.8437C12.6896 19.8517 12.7688 19.8437 12.8796 19.7959C12.9825 19.756 13.1171 19.6842 13.2833 19.5726C13.4496 19.4689 13.6554 19.3254 13.9088 19.1419C14.0354 19.0542 14.0987 18.9825 14.0908 18.9266C14.0829 18.8708 14.0117 18.8469 13.8771 18.8549C13.6317 18.8628 13.41 18.8628 13.22 18.8469C13.0221 18.8309 12.8242 18.799 12.6342 18.7352C12.4442 18.6715 12.2463 18.5837 12.0404 18.4641C11.8346 18.3445 11.5971 18.177 11.32 17.9697C11.3992 17.6587 11.4625 17.3317 11.51 16.9809C11.5337 16.7815 11.5575 16.638 11.5733 16.5343C11.5892 16.4386 11.6129 16.3429 11.6446 16.2711C11.6683 16.2073 11.6763 16.1595 11.6842 16.1196C11.6921 16.0797 11.6763 16.0399 11.6525 15.992C11.6208 15.9522 11.5733 15.9043 11.5021 15.8565C11.4308 15.8086 11.3279 15.7448 11.1933 15.673C11.3833 15.6013 11.5971 15.5375 11.8187 15.4657C12.0325 15.3939 12.27 15.3222 12.5154 15.2504C12.7529 15.1786 12.8717 15.0989 12.8796 15.0032C12.8875 14.9075 12.8083 14.8198 12.6262 14.7241C12.5075 14.6603 12.3967 14.6364 12.2858 14.6523C12.175 14.6683 12.0325 14.7241 11.8583 14.8278C11.8108 14.8596 11.7158 14.8995 11.5892 14.9553C11.4546 15.0112 11.3042 15.075 11.1142 15.1547C10.9242 15.2344 10.7183 15.3142 10.4967 15.4019C10.2671 15.4896 10.0375 15.5774 9.80792 15.6571C9.57833 15.7448 9.35667 15.8166 9.15875 15.8804C8.95292 15.9442 8.79458 15.992 8.67583 16.008C8.375 16.0718 8.21667 16.1356 8.20875 16.1994C8.20875 16.2632 8.3275 16.327 8.55708 16.3907C8.65208 16.4147 8.73917 16.4386 8.8025 16.4386C8.86583 16.4466 8.93708 16.4466 9.00042 16.4386C9.06375 16.4306 9.12708 16.4147 9.19042 16.3987C9.25375 16.3748 9.325 16.3429 9.41208 16.311C9.53875 16.2472 9.72083 16.1754 9.95833 16.0877C10.1879 16.008 10.4808 15.8963 10.845 15.7687C10.9162 15.9841 10.9558 16.2472 10.9558 16.5502C10.9558 16.8533 10.9242 17.1962 10.845 17.5869C10.7421 17.4992 10.6313 17.4035 10.5125 17.2998C10.3938 17.1962 10.2829 17.0925 10.1721 16.9888C10.0454 16.8692 9.91875 16.7895 9.8 16.7496C9.67333 16.7097 9.53083 16.7097 9.36458 16.7496C9.10333 16.8214 8.96875 16.9011 8.97667 16.9968C8.97667 17.0925 9.07958 17.1404 9.2775 17.1483C9.34875 17.1563 9.42 17.1722 9.49125 17.1962C9.5625 17.2201 9.64167 17.2679 9.74458 17.3397C9.8475 17.4115 9.97417 17.5152 10.1167 17.6427C10.2592 17.7703 10.4492 17.9378 10.6708 18.1451C10.5758 18.3764 10.465 18.5917 10.3463 18.7831C10.2275 18.9825 10.0771 19.1818 9.91083 19.3652C9.73667 19.5566 9.53875 19.748 9.30125 19.9394C9.06375 20.1388 8.77875 20.3461 8.44625 20.5614C8.10583 20.7847 7.93167 20.9362 7.93167 21.008C7.93958 21.1116 8.09792 21.0797 8.39083 20.9522ZM25 12.3158V25.4976L16.165 22.5949L6 26V11.8612L8.36708 11.0638V6.62201L14.7954 8.91069L23.48 6V11.8293L25 12.3158ZM15.0013 9.82775L6.93417 12.5391V24.6762L15.0013 21.9729V9.82775ZM22.5379 11.5263V7.30781L16.1017 9.46093L22.5379 11.5263ZM23.1396 21.8931L20.725 13.1292L19.1021 12.6188L16.6558 19.8596L18.1521 20.3301L18.6112 18.8389L21.1367 19.6364L21.5879 21.4147L23.1396 21.8931ZM19.0071 17.571L20.7646 18.1212L19.9017 14.7002L19.0071 17.571Z" fill="#2E76B8"/>
</svg>
