<svg width="30" height="30" viewBox="0 0 30 30" fill="none" xmlns="http://www.w3.org/2000/svg">
<path fill-rule="evenodd" clip-rule="evenodd" d="M10.4082 8.57143C11.4071 8.57143 12.3501 8.81065 13.1831 9.23494C12.5203 10.0123 11.9964 10.9118 11.6499 11.895C11.2704 11.7264 10.8502 11.6327 10.4082 11.6327C8.71749 11.6327 7.34693 13.0032 7.34693 14.6939C7.34693 16.3845 8.71749 17.7551 10.4082 17.7551C12.0988 17.7551 13.4694 16.3845 13.4694 14.6939C13.4694 13.1412 14.0474 11.7234 15 10.6441C16.1218 9.37309 17.7632 8.57143 19.5918 8.57143C22.9732 8.57143 25.7143 11.3125 25.7143 14.6939C25.7143 18.0752 22.9732 20.8163 19.5918 20.8163C17.7632 20.8163 16.1218 20.0147 15 18.7436C13.8781 20.0147 12.2368 20.8163 10.4082 20.8163C7.02682 20.8163 4.28571 18.0752 4.28571 14.6939C4.28571 11.3125 7.02682 8.57143 10.4082 8.57143ZM16.5306 14.6939C16.5306 16.3845 17.9012 17.7551 19.5918 17.7551C21.2825 17.7551 22.6531 16.3845 22.6531 14.6939C22.6531 13.0032 21.2825 11.6327 19.5918 11.6327C17.9012 11.6327 16.5306 13.0032 16.5306 14.6939Z" fill="#DCDCDC"/>
</svg>
