<svg width="30" height="30" viewBox="0 0 30 30" fill="none" xmlns="http://www.w3.org/2000/svg">
<path fill-rule="evenodd" clip-rule="evenodd" d="M17.7895 24.2L11.5263 20.2422V16.7923L15.5053 19.5169L17.7895 16.5444V24.2ZM18.5263 24.1991V16.5139L20.8562 19.4314L24.7895 16.8499V20.2422L18.5263 24.1991ZM10.9081 15.3628L9.3158 14.2771L11.5263 11.3953L9.3158 8.93164L15.7396 5L18.1085 7.08145L20.5585 5L27 8.98051L24.7932 11.3988L27 14.4036L25.348 15.4867L20.9984 18.3396L18.5315 15.2493L23.9959 11.7916L18.1586 7.976L12.3206 11.7916L17.7895 15.2275V15.2484L15.3601 18.4095L11.5263 15.7843L11.4084 15.704L10.9081 15.361V15.3628Z" fill="#2E76B8"/>
<path d="M3 14.6H8.68421L10.5789 15.9714L8.68421 17.3429H3V14.6Z" fill="#2E76B8"/>
</svg>
