<svg width="30" height="30" viewBox="0 0 30 30" fill="none" xmlns="http://www.w3.org/2000/svg">
<path fill-rule="evenodd" clip-rule="evenodd" d="M14.5417 26L6.75 21.465V17.512L11.7 20.634L14.5417 17.228V26ZM15.4583 25.999V17.193L18.3568 20.536L23.25 17.578V21.465L15.4583 25.999ZM5.98092 15.874L4 14.63L6.75 11.328L4 8.505L11.9915 4L14.9386 6.385L17.9865 4L26 8.561L23.2546 11.332L26 14.775L23.9448 16.016L18.5337 19.285L15.4648 15.744L22.2628 11.782L15.0009 7.41L7.73817 11.782L14.5417 15.719V15.743L11.5194 19.365L6.75 16.357L6.60333 16.265L5.98092 15.872V15.874Z" fill="#2E76B8"/>
</svg>
