<svg width="30" height="30" viewBox="0 0 30 30" fill="none" xmlns="http://www.w3.org/2000/svg">
<path d="M5.59617 13.4641C5.18755 13.7888 4.65549 13.9594 4 13.9761V16.0114C4.65549 16.0281 5.18755 16.2029 5.59617 16.5359C6.0133 16.8689 6.28997 17.3226 6.42618 17.897C6.56238 18.4714 6.63474 19.5078 6.64326 21.0062C6.65177 22.5047 6.7071 23.5827 6.80926 24.2404C6.91992 24.898 7.15403 25.4391 7.51157 25.8637C7.86911 26.2966 8.32029 26.6087 8.86512 26.8002C9.23969 26.9334 9.8441 27 10.6784 27H11.3935V25.0395H10.9976C10.1889 25.0395 9.64405 24.9272 9.36313 24.7024C9.09071 24.4776 8.92045 24.0822 8.85235 23.5161C8.8183 23.2081 8.80127 22.2425 8.80128 20.6191C8.80127 18.8293 8.58845 17.5432 8.16281 16.7607C7.74567 15.9698 7.0689 15.3829 6.13248 15C6.92418 14.6254 7.50306 14.1967 7.86911 13.7138C8.24368 13.231 8.50758 12.5442 8.66081 11.6535C8.75445 11.0791 8.80127 9.70136 8.80128 7.52029C8.80127 6.4381 8.94599 5.74299 9.23543 5.43496C9.52487 5.11864 10.1123 4.96047 10.9976 4.96046H11.3935V3H10.6784C9.94626 3.00002 9.41846 3.04164 9.09497 3.12487C8.61824 3.25808 8.22665 3.45371 7.92019 3.71176C7.61372 3.96152 7.35408 4.29866 7.14126 4.7232C6.93695 5.14778 6.79648 5.70969 6.71987 6.40895C6.6773 6.85017 6.65177 7.76588 6.64326 9.15609C6.63474 10.5463 6.56238 11.5286 6.42618 12.103C6.28997 12.6774 6.0133 13.1311 5.59617 13.4641Z" fill="#2E76B8"/>
<path d="M27 16.0114V13.9761C26.3445 13.9594 25.8082 13.7846 25.3911 13.4516C24.9824 13.1186 24.71 12.6691 24.5738 12.103C24.4376 11.5286 24.3652 10.4922 24.3567 8.99376C24.3482 7.49533 24.2886 6.41729 24.178 5.75963C24.0758 5.10199 23.846 4.55673 23.4884 4.12383C23.1309 3.69097 22.6797 3.38295 22.1349 3.19979C21.7603 3.06662 21.1559 3.00002 20.3216 3H19.6065V4.96046H20.0024C20.8111 4.96047 21.3517 5.07286 21.6241 5.29761C21.905 5.51406 22.0753 5.90116 22.1349 6.4589C22.1774 6.77525 22.1987 7.74507 22.1987 9.36837C22.1987 11.1582 22.3988 12.4319 22.7989 13.1894C23.199 13.9386 23.8885 14.5422 24.8675 15C24.1184 15.308 23.5395 15.7409 23.1309 16.2986C22.7223 16.8481 22.4499 17.5848 22.3136 18.5088C22.237 19.0666 22.1987 20.3861 22.1987 22.4672C22.1987 23.5578 22.054 24.257 21.7646 24.565C21.4751 24.8814 20.8877 25.0395 20.0024 25.0395H19.6065V27H20.3216C21.0537 27 21.5815 26.9542 21.905 26.8626C22.3817 26.7294 22.7733 26.5338 23.0798 26.2758C23.3863 26.026 23.6417 25.6889 23.846 25.2643C24.0588 24.8481 24.2035 24.2862 24.2801 23.5786C24.3227 23.1374 24.3482 22.2216 24.3567 20.8314C24.3652 19.4412 24.4376 18.4631 24.5738 17.897C24.71 17.3226 24.9824 16.8689 25.3911 16.5359C25.8082 16.2029 26.3445 16.0281 27 16.0114Z" fill="#2E76B8"/>
</svg>
