<svg width="30" height="30" viewBox="0 0 30 30" fill="none" xmlns="http://www.w3.org/2000/svg">
<path d="M4.31333 21.629L5.46985 17.5322H3L3.11761 16.2385H5.84229L6.78319 13.063H4.15652L4.27413 11.7888H7.13602L8.31214 7.63321H9.72349L8.52777 11.7888H11.3505L12.5658 7.63321H13.8987L12.7226 11.7888H15.2317L15.0944 13.063H12.3306L11.4093 16.2385H14.1143L13.9967 17.5322H11.0368L9.8607 21.629H8.44936L9.68428 17.5322H6.86159L5.66587 21.629H4.31333ZM7.23403 16.2385H10.0567L10.9388 13.063H8.13573L7.23403 16.2385Z" fill="#DCDCDC"/>
<rect x="17.3773" y="13" width="8" height="2" fill="#DCDCDC"/>
<path d="M18.6761 23C18.4418 23 18.2075 22.9788 17.9732 22.9363C17.7288 22.9045 17.5301 22.862 17.3773 22.809V20.9304C17.5403 20.9834 17.688 21.0206 17.8204 21.0418C17.9529 21.0736 18.0904 21.0896 18.233 21.0896C18.5386 21.0896 18.8035 20.9834 19.0276 20.7711C19.2619 20.5589 19.4249 20.2245 19.5165 19.7682L21.0446 12.2697L21.4113 10.4866L21.5488 9.83383C21.6609 9.30315 21.8035 8.85738 21.9766 8.49652C22.16 8.13566 22.379 7.84909 22.6337 7.63682C22.8884 7.41393 23.1787 7.25473 23.5047 7.1592C23.8408 7.05307 24.2126 7 24.6201 7C24.9665 7 25.2822 7.03715 25.5675 7.11144C25.8629 7.17512 26.1328 7.26534 26.3773 7.38209L25.7814 9.11741C25.6388 9.05373 25.486 9.00066 25.323 8.95821C25.1702 8.90514 24.9919 8.87861 24.7882 8.87861C24.503 8.87861 24.2738 8.98474 24.1006 9.19702C23.9274 9.39867 23.8103 9.66932 23.7491 10.009L23.6575 10.4866L23.2907 12.2697L21.6863 20.1184C21.5845 20.6491 21.4164 21.132 21.1821 21.5672C20.9478 22.0023 20.6269 22.3473 20.2194 22.602C19.8221 22.8673 19.3077 23 18.6761 23Z" fill="#DCDCDC"/>
</svg>
