<svg width="30" height="30" viewBox="0 0 30 30" fill="none" xmlns="http://www.w3.org/2000/svg">
<circle cx="15" cy="15" r="12" stroke="#2E76B8" stroke-width="2"/>
<rect x="11" y="13" width="8" height="2" fill="#2E76B8"/>
<path d="M12.2988 23C12.0645 23 11.8302 22.9788 11.5959 22.9363C11.3514 22.9045 11.1528 22.862 11 22.809V20.9304C11.163 20.9834 11.3107 21.0206 11.4431 21.0418C11.5756 21.0736 11.7131 21.0896 11.8557 21.0896C12.1613 21.0896 12.4261 20.9834 12.6503 20.7711C12.8846 20.5589 13.0475 20.2245 13.1392 19.7682L14.6672 12.2697L15.034 10.4866L15.1715 9.83383C15.2835 9.30315 15.4261 8.85738 15.5993 8.49652C15.7827 8.13566 16.0017 7.84909 16.2564 7.63682C16.511 7.41393 16.8014 7.25473 17.1273 7.1592C17.4635 7.05307 17.8353 7 18.2428 7C18.5891 7 18.9049 7.03715 19.1902 7.11144C19.4856 7.17512 19.7555 7.26534 20 7.38209L19.4041 9.11741C19.2615 9.05373 19.1087 9.00066 18.9457 8.95821C18.7929 8.90514 18.6146 8.87861 18.4109 8.87861C18.1256 8.87861 17.8964 8.98474 17.7233 9.19702C17.5501 9.39867 17.4329 9.66932 17.3718 10.009L17.2801 10.4866L16.9134 12.2697L15.309 20.1184C15.2071 20.6491 15.039 21.132 14.8048 21.5672C14.5705 22.0023 14.2496 22.3473 13.8421 22.602C13.4448 22.8673 12.9304 23 12.2988 23Z" fill="#2E76B8"/>
</svg>
