<svg width="48" height="48" viewBox="0 0 48 48" fill="none" xmlns="http://www.w3.org/2000/svg">
<path d="M6.64516 3.08257C6.29247 2.37798 4.73477 1.02752 4 0.440367L9.29032 3.08257L8.4086 0C8.4086 0 12.6946 2.00084 14.5806 3.52294C16.3441 4.84404 17.2258 5.72477 18.1075 7.04587C18.9892 8.36697 24.6323 13.3872 26.043 14.0917C28.6882 15.4128 30.2955 13.5183 32.868 14.0917C34.4484 14.444 35.4424 15.7064 35.7419 16.2936C36.1828 16.4404 38.265 16.8401 39.2688 17.1743C40.5914 17.6147 42.3548 18.055 45 20.2569C45 20.2569 41.914 18.9358 39.7097 18.4954C37.5054 18.055 36.1828 18.055 36.1828 18.055C33.5376 17.6147 34.1189 18.02 32.2151 18.4954C30.5043 18.9226 29.7588 19.3761 26.9247 23.3395C24.7204 26.422 24.7204 25.9817 21.1935 28.6239C16.3441 34.3486 16.8668 35.0249 15.9032 37.4312C15.1978 39.1927 13.1111 46.6789 12.8172 48C12.8172 47.5596 13.7871 43.4202 14.1398 40.9541C14.4925 38.4881 15.7563 34.9358 16.7849 32.1468L13.6989 38.3119L16.3441 30.3853L20.7527 20.6972C18.8423 19.0826 15.4624 16.2936 13.2581 14.0917C11.4946 12.3303 7.08602 3.9633 6.64516 3.08257Z" fill="#E1E1E1"/>
<path d="M6.64516 2.66667C6.29247 1.95556 4.73477 0.592596 4 3.39084e-06L10.172 2.66667L14.5806 6.22222L17.6667 9.77778L19.4301 11.5556C23.8387 13.7778 24.7204 14.6667 26.9247 14.6667C30.4516 14.2222 30.8925 13.3333 32.868 13.7778C34.4484 14.1333 35.4424 15.4074 35.7419 16C36.1828 16.1481 38.265 16.5516 39.2688 16.8889C40.5914 17.3333 42.3548 17.7778 45 20C45 20 41.914 18.6667 39.7097 18.2222C37.5054 17.7778 36.1828 17.7778 36.1828 17.7778C33.5376 17.3333 34.1189 17.7424 32.2151 18.2222C30.5043 18.6534 29.7588 19.1111 26.9247 23.1111C24.7204 26.2222 24.7204 25.7778 21.1935 28.4444C16.3441 34.2222 16.8668 34.9048 15.9032 37.3333C15.1978 39.1111 13.1111 46.6667 12.8172 48C12.8172 47.5556 13.7871 43.3778 14.1398 40.8889C14.4925 38.4 15.7563 34.8148 16.7849 32L13.6989 38.2222L16.3441 30.2222L20.7527 20.4444C18.8423 18.8148 15.4624 16 13.2581 13.7778C11.4946 12 7.08602 3.55556 6.64516 2.66667Z" fill="url(#paint0_linear_8_2)"/>
<defs>
<linearGradient id="paint0_linear_8_2" x1="6.64516" y1="26.2222" x2="6.64516" y2="1.33333" gradientUnits="userSpaceOnUse">
<stop offset="0.00953429" stop-color="#DADADA"/>
<stop offset="1" stop-color="white"/>
</linearGradient>
</defs>
</svg>
