<svg width="30" height="30" viewBox="0 0 30 30" fill="none" xmlns="http://www.w3.org/2000/svg">
<path d="M23.5714 20.9524V9.04762C23.5714 6.46667 19.6468 4.28571 15 4.28571C10.3532 4.28571 6.42859 6.46667 6.42859 9.04762V20.9524C6.42859 23.5333 10.3532 25.7143 15 25.7143C19.6468 25.7143 23.5714 23.5333 23.5714 20.9524ZM15 6.66667C18.9547 6.66667 21.3547 8.46071 21.4286 9.04048C21.3547 9.63452 18.9547 11.4286 15 11.4286C11.0454 11.4286 8.64537 9.63452 8.57145 9.05476C8.64537 8.46071 11.0454 6.66667 15 6.66667ZM8.57145 12.1512C10.1561 13.1595 12.4682 13.8095 15 13.8095C17.5318 13.8095 19.8439 13.1595 21.4286 12.1512V14.9929C21.3547 15.5869 18.9547 17.381 15 17.381C11.0454 17.381 8.64537 15.5869 8.57145 15V12.1512ZM8.57145 20.9524V18.1036C10.1561 19.1119 12.4682 19.7619 15 19.7619C17.5318 19.7619 19.8439 19.1119 21.4286 18.1036V20.9452C21.3547 21.5393 18.9547 23.3333 15 23.3333C11.0454 23.3333 8.64537 21.5393 8.57145 20.9524Z" fill="#DCDCDC"/>
</svg>
