<svg width="30" height="30" viewBox="0 0 30 30" fill="none" xmlns="http://www.w3.org/2000/svg">
<g clip-path="url(#clip0_4_22)">
<path fill-rule="evenodd" clip-rule="evenodd" d="M21.4488 4.00003C21.6926 3.99816 21.9026 4.08052 22.0844 4.25272L24.7394 6.78893C24.9119 6.95364 24.9962 7.17077 25 7.41035C25.0037 7.65368 24.9325 7.87641 24.7637 8.04487L23.35 9.51232L19.4277 5.7314L20.8264 4.27705C20.997 4.09923 21.2051 4.00377 21.4488 4.00003ZM9.01986 17.6413C9.49984 17.4934 10.0061 17.763 10.1542 18.2403C10.3023 18.7194 10.0323 19.2248 9.55421 19.3727C8.15738 19.7994 7.22179 20.6267 6.91055 21.4035C6.82805 21.6113 6.79992 21.8003 6.8318 21.9576C6.85617 22.0755 6.92742 22.184 7.04554 22.2683C7.55553 22.6407 8.65424 22.7362 10.4992 22.2889C11.3917 22.0717 11.026 22.1616 11.6223 22.0511C12.8072 21.8321 13.9903 21.6824 14.9447 21.7292C16.1971 21.791 17.1384 22.1934 17.459 23.1536C17.6671 23.775 17.609 24.3141 17.5565 24.797C17.5377 24.9711 17.5208 25.132 17.5283 25.2387C17.5283 25.2425 17.7177 25.2294 18.6346 25.1564C19.6958 25.0721 20.7945 24.6547 21.8782 24.2411C22.4351 24.0296 22.9863 23.8199 23.6125 23.6271C24.0925 23.4812 24.5987 23.7526 24.7431 24.2299C24.8894 24.709 24.6175 25.2144 24.1394 25.3585C23.6538 25.5064 23.0913 25.7216 22.5269 25.935C21.3176 26.3955 20.097 26.8597 18.7771 26.9645C16.3621 27.1535 15.8015 26.4722 15.7153 25.3772C15.6946 25.1189 15.7209 24.87 15.749 24.6023C15.7809 24.3028 15.8165 23.9678 15.7359 23.7245C15.7003 23.6159 15.3572 23.5598 14.8584 23.5373C14.0597 23.498 13.0135 23.6328 11.9485 23.8312C11.4179 23.9285 11.7985 23.8349 10.9267 24.0464C8.49675 24.636 6.88242 24.3852 5.9787 23.7264C5.47059 23.3576 5.16873 22.8728 5.05248 22.3282C4.94373 21.8209 5.00561 21.2744 5.2231 20.7297C5.71433 19.5074 7.06992 18.2365 9.01986 17.6413ZM13.261 13.6788L15.6684 15.9904L12.7247 16.7803C12.6179 16.8009 12.5766 16.7578 12.5954 16.6605L13.261 13.6788ZM18.1827 7.01916L22.1032 10.7889L16.7484 16.4303L11.9504 17.7143C11.7779 17.748 11.7104 17.6806 11.7385 17.5178L12.826 12.6625L18.1827 7.01916Z" fill="#DCDCDC"/>
</g>
<defs>
<clipPath id="clip0_4_22">
<rect width="20" height="23" fill="white" transform="translate(5 4)"/>
</clipPath>
</defs>
</svg>
