<svg width="30" height="30" viewBox="0 0 30 30" fill="none" xmlns="http://www.w3.org/2000/svg">
<g clip-path="url(#clip0_3_10)">
<path d="M1 14.1227C1.54839 14.1085 1.99351 13.9622 2.33537 13.6841C2.68434 13.3988 2.9158 13.0101 3.02976 12.5179C3.14371 12.0258 3.20424 11.1842 3.21137 9.9931C3.21849 8.80202 3.23985 8.01746 3.27547 7.63944C3.33956 7.04033 3.45707 6.5589 3.628 6.19514C3.80605 5.83141 4.02327 5.54255 4.27966 5.32856C4.53605 5.10748 4.86366 4.93987 5.26249 4.82573C5.53312 4.75443 5.97468 4.71877 6.58718 4.71875H7.18542V6.39841H6.85425C6.11356 6.39843 5.62215 6.53394 5.38001 6.80495C5.13785 7.06886 5.01678 7.66441 5.01679 8.5916C5.01678 10.4603 4.97761 11.6407 4.89927 12.1328C4.77107 12.896 4.55029 13.4844 4.23693 13.898C3.93068 14.3117 3.44639 14.679 2.78405 15C3.56746 15.3281 4.13366 15.8309 4.48264 16.5085C4.83873 17.1789 5.01678 18.2809 5.01679 19.8143C5.01678 21.2051 5.03102 22.0325 5.05952 22.2964C5.11649 22.7814 5.25893 23.1201 5.48683 23.3127C5.72185 23.5053 6.17766 23.6016 6.85425 23.6016H7.18542V25.2812H6.58718C5.88922 25.2812 5.38356 25.2242 5.0702 25.1101C4.61439 24.946 4.23693 24.6785 3.93781 24.3077C3.63868 23.9439 3.44283 23.4803 3.35025 22.9169C3.26478 22.3534 3.21849 21.4298 3.21137 20.146C3.20424 18.8621 3.14371 17.9742 3.02976 17.482C2.9158 16.9899 2.68434 16.6012 2.33537 16.3159C1.99351 16.0306 1.54839 15.8808 1 15.8666V14.1227ZM8.30713 14.1227C8.85552 14.1085 9.30064 13.9622 9.6425 13.6841C9.99147 13.3988 10.2229 13.0101 10.3369 12.5179C10.4508 12.0258 10.5114 11.1842 10.5185 9.9931C10.5256 8.80202 10.547 8.01746 10.5826 7.63944C10.6467 7.04033 10.7642 6.5589 10.9351 6.19514C11.1132 5.83141 11.3304 5.54255 11.5868 5.32856C11.8432 5.10748 12.1708 4.93987 12.5696 4.82573C12.8403 4.75443 13.2818 4.71877 13.8943 4.71875H14.4926V6.39841H14.1614C13.4207 6.39843 12.9293 6.53394 12.6871 6.80495C12.445 7.06886 12.3239 7.66441 12.3239 8.5916C12.3239 10.4603 12.2847 11.6407 12.2064 12.1328C12.0782 12.896 11.8574 13.4844 11.5441 13.898C11.2378 14.3117 10.7535 14.679 10.0912 15C10.8746 15.3281 11.4408 15.8309 11.7898 16.5085C12.1459 17.1789 12.3239 18.2809 12.3239 19.8143C12.3239 21.2051 12.3382 22.0325 12.3666 22.2964C12.4236 22.7814 12.5661 23.1201 12.794 23.3127C13.029 23.5053 13.4848 23.6016 14.1614 23.6016H14.4926V25.2812H13.8943C13.1964 25.2812 12.6907 25.2242 12.3773 25.1101C11.9215 24.946 11.5441 24.6785 11.2449 24.3077C10.9458 23.9439 10.75 23.4803 10.6574 22.9169C10.5719 22.3534 10.5256 21.4298 10.5185 20.146C10.5114 18.8621 10.4508 17.9742 10.3369 17.482C10.2229 16.9899 9.99147 16.6012 9.6425 16.3159C9.30064 16.0306 8.85552 15.8808 8.30713 15.8666V14.1227ZM21.6929 14.1227V15.8666C21.1445 15.8808 20.6958 16.0306 20.3468 16.3159C20.0049 16.6012 19.777 16.9899 19.6631 17.482C19.5491 17.967 19.4886 18.8051 19.4815 19.9962C19.4744 21.1873 19.453 21.9718 19.4174 22.3499C19.3533 22.9561 19.2322 23.4375 19.0542 23.7941C18.8832 24.1579 18.6696 24.4467 18.4132 24.6607C18.1568 24.8818 17.8292 25.0494 17.4304 25.1636C17.1597 25.242 16.7182 25.2812 16.1057 25.2812H15.5074V23.6016H15.8386C16.5793 23.6016 17.0707 23.4661 17.3129 23.195C17.555 22.9311 17.6761 22.332 17.6761 21.3977C17.6761 19.6146 17.7081 18.4841 17.7722 18.0063C17.8862 17.2146 18.1141 16.5834 18.4559 16.1126C18.7978 15.6348 19.2821 15.2639 19.9088 15C19.0898 14.6077 18.5129 14.0906 18.1782 13.4487C17.8434 12.7997 17.6761 11.7084 17.6761 10.175C17.6761 8.78419 17.6583 7.95327 17.6227 7.68223C17.5728 7.20438 17.4304 6.87273 17.1953 6.68727C16.9674 6.49471 16.5152 6.39843 15.8386 6.39841H15.5074V4.71875H16.1057C16.8036 4.71877 17.3093 4.77582 17.6227 4.88993C18.0785 5.04685 18.4559 5.31075 18.755 5.68161C19.0542 6.05251 19.2465 6.51968 19.3319 7.08311C19.4245 7.64658 19.4744 8.57022 19.4815 9.85402C19.4886 11.1379 19.5491 12.0258 19.6631 12.5179C19.777 13.003 20.0049 13.3881 20.3468 13.6734C20.6958 13.9587 21.1445 14.1085 21.6929 14.1227ZM29 14.1227V15.8666C28.4516 15.8808 28.0029 16.0306 27.6539 16.3159C27.3121 16.6012 27.0842 16.9899 26.9702 17.482C26.8563 17.967 26.7957 18.8051 26.7886 19.9962C26.7815 21.1873 26.7601 21.9718 26.7245 22.3499C26.6604 22.9561 26.5393 23.4375 26.3613 23.7941C26.1904 24.1579 25.9767 24.4467 25.7203 24.6607C25.4639 24.8818 25.1363 25.0494 24.7375 25.1636C24.4669 25.242 24.0253 25.2812 23.4128 25.2812H22.8146V23.6016H23.1457C23.8864 23.6016 24.3778 23.4661 24.62 23.195C24.8621 22.9311 24.9832 22.332 24.9832 21.3977C24.9832 19.6146 25.0152 18.4841 25.0793 18.0063C25.1933 17.2146 25.4212 16.5834 25.7631 16.1126C26.1049 15.6348 26.5892 15.2639 27.2159 15C26.3969 14.6077 25.82 14.0906 25.4853 13.4487C25.1506 12.7997 24.9832 11.7084 24.9832 10.175C24.9832 8.78419 24.9654 7.95327 24.9298 7.68223C24.8799 7.20438 24.7375 6.87273 24.5025 6.68727C24.2746 6.49471 23.8223 6.39843 23.1457 6.39841H22.8146V4.71875H23.4128C24.1108 4.71877 24.6164 4.77582 24.9298 4.88993C25.3856 5.04685 25.7631 5.31075 26.0622 5.68161C26.3613 6.05251 26.5536 6.51968 26.6391 7.08311C26.7316 7.64658 26.7815 8.57022 26.7886 9.85402C26.7957 11.1379 26.8563 12.0258 26.9702 12.5179C27.0842 13.003 27.3121 13.3881 27.6539 13.6734C28.0029 13.9587 28.4516 14.1085 29 14.1227Z" fill="#2E76B8"/>
</g>
<defs>
<clipPath id="clip0_3_10">
<rect width="28" height="28" fill="white" transform="translate(1 1)"/>
</clipPath>
</defs>
</svg>
